<svg width="68" height="68" viewBox="0 0 68 68" fill="none" xmlns="http://www.w3.org/2000/svg">
<path d="M12.0858 20.3083V47.554L6.97681 43.7223C4.61591 41.9516 2.78744 39.5658 1.69142 36.8257L0.744976 34.4596C-0.359964 31.6973 -0.230896 28.5943 1.09963 25.9332C3.10461 21.9233 7.45059 19.6462 11.8888 20.2802L12.0858 20.3083Z" fill="#FFB74D"/>
<path d="M55.6788 20.3083V47.554L60.7878 43.7223C63.1487 41.9516 64.9772 39.5658 66.0732 36.8257L67.0196 34.4596C68.1246 31.6973 67.9955 28.5943 66.665 25.9332C64.66 21.9233 60.314 19.6462 55.8758 20.2802L55.6788 20.3083Z" fill="#FFB74D"/>
<path d="M26.1298 14.3861C30.2685 11.9719 35.3652 11.8851 39.5839 14.1566L40.0223 14.3929C44.6297 16.8737 49.5288 18.7702 54.6053 20.0394L55.6786 20.3079V47.554L41.827 53.4905C36.0828 55.9524 29.558 55.8299 23.91 53.1546L12.0858 47.554V20.3079L12.5741 20.1683C17.3159 18.8134 21.8699 16.8709 26.1298 14.3861ZM33.8827 25.7581C32.6789 25.7581 31.703 26.734 31.703 27.9378V32.2972H27.3436C26.1398 32.2972 25.1639 33.2731 25.1639 34.4769C25.1641 35.6805 26.1399 36.6566 27.3436 36.6566H31.703V41.0159C31.7032 42.2195 32.679 43.1956 33.8827 43.1956C35.0863 43.1956 36.0622 42.2195 36.0624 41.0159V36.6566H40.4218C41.6253 36.6564 42.6013 35.6804 42.6014 34.4769C42.6014 33.2731 41.6254 32.2973 40.4218 32.2972H36.0624V27.9378C36.0624 26.7341 35.0864 25.7582 33.8827 25.7581Z" fill="#007F3E"/>
</svg>
