<svg width="68" height="68" viewBox="0 0 68 68" fill="none" xmlns="http://www.w3.org/2000/svg">
<path d="M22.7443 4.71915C22.7443 4.71915 30.2777 0.941162 34.1178 0.941162C37.9579 0.941162 45.4913 4.71915 45.4913 4.71915V63.1792C45.4913 63.1792 41.0469 61.3608 34.1178 61.3608C27.1886 61.3608 22.7443 63.1792 22.7443 63.1792V4.71915Z" fill="#ED1C24"/>
<path d="M30.6843 29.8548C30.6843 25.5233 28.8038 22.7054 28.0188 20.87C26.7426 17.8713 26.2004 14.7654 26.0931 11.6199C25.9915 8.57602 27.3073 4.06389 29.0466 1.53394C24.3086 3.5387 12.4777 9.60946 12.3591 9.75629C12.3591 9.75629 12.7036 20.486 11.4104 25.4782C9.33784 33.4859 4.86523 36.863 4.86523 36.863V64.1955C8.65452 65.4492 18.9607 66.652 25.3421 67.3128C26.4941 67.4314 28.9958 67.0078 29.8881 66.2737C30.8312 65.5 31.4185 64.1447 31.4354 62.9249C31.5653 51.958 30.6843 34.1918 30.6843 29.8548Z" fill="#007F3E"/>
<path d="M4.88223 57.8036C12.7149 60.1585 28.0867 61.1298 31.3959 60.5481L31.2886 55.9626C27.9794 55.9513 12.7996 55.7197 4.87659 52.9808L4.88223 57.8036ZM31.2886 45.6169C31.2886 45.6169 27.2396 45.8145 21.2309 45.2159L21.9707 4.86084C20.158 5.69663 17.2666 7.21009 17.2666 7.21009L16.7075 44.815C12.489 44.3632 8.03338 43.6573 4.87659 42.5674V47.3901C12.7093 49.745 28.0923 51.0664 31.3959 50.4848L31.2886 45.6169Z" fill="#FFFF00"/>
<path d="M4.54321 36.8911C4.49803 36.2191 4.51498 35.9537 4.75216 35.6883C4.95546 35.4567 5.18699 35.18 5.379 34.9372C5.93243 34.2482 6.46891 33.548 6.97716 32.8251C8.15179 31.1648 9.26994 29.3803 9.93066 27.4433C11.1956 23.7161 11.7095 19.7631 11.8338 15.8326C11.9298 12.8961 11.5797 10.1628 11.5797 10.1628C11.5797 10.1628 11.4611 9.91432 12.1613 9.54725C12.8616 9.18019 13.1552 9.32137 13.1552 9.32137C13.3359 10.3717 13.4828 12.2466 13.5279 13.218C13.9684 21.9034 12.0484 26.5341 11.5514 27.9967C10.0493 32.4185 5.85337 37.309 4.88769 37.7382C4.89899 37.7326 4.59404 37.5631 4.54321 36.8911Z" fill="white"/>
<path d="M37.5512 29.8548C37.5512 25.5233 39.4317 22.7054 40.2167 20.87C41.493 17.8714 42.0351 14.7654 42.1424 11.6199C42.2441 8.57602 40.9283 4.06389 39.1889 1.53394C43.9269 3.5387 55.7579 9.60947 55.8765 9.75629C55.8765 9.75629 55.532 20.486 56.8252 25.4782C58.8977 33.4859 63.3703 36.863 63.3703 36.863L63.3421 64.0261C56.091 65.901 49.0433 67.1321 42.9782 67.2959C41.8205 67.3241 39.5616 67.4257 38.3418 66.2737C36.9187 64.9297 36.8566 64.3988 36.8453 63.179C36.7211 52.2121 37.5512 34.1918 37.5512 29.8548Z" fill="#007F3E"/>
<path d="M63.3308 57.8036C55.4981 60.1585 40.149 61.1298 36.8453 60.5481L36.9526 55.9626C40.2619 55.9513 55.4191 55.7197 63.3421 52.9808L63.3308 57.8036ZM51.5338 44.815L50.9747 7.21009C50.9747 7.21009 48.0833 5.69663 46.2706 4.86084L47.0103 45.2159C42.2667 45.8371 36.9526 45.9049 36.9526 45.9049L36.8453 50.4904C39.8779 50.8575 55.5094 49.7506 63.3421 47.3957V42.573C60.1797 43.6573 55.7522 44.3632 51.5338 44.815Z" fill="#FFFF00"/>
<path d="M63.6924 36.8915C63.7376 36.2195 63.7206 35.954 63.4834 35.6886C63.2801 35.4571 63.0486 35.1804 62.8566 34.9375C62.3032 34.2486 61.7667 33.5483 61.2584 32.8255C60.0838 31.1652 58.9657 29.3807 58.3049 27.4437C57.04 23.7165 56.5261 19.7635 56.4018 15.833C56.3058 12.8964 56.656 10.1632 56.656 10.1632C56.656 10.1632 56.7745 9.91469 56.0743 9.54762C55.374 9.18055 55.0804 9.32173 55.0804 9.32173C54.8997 10.3721 54.7528 12.247 54.7077 13.2183C54.2672 21.9037 56.1872 26.5345 56.6842 27.9971C58.1863 32.4189 62.3822 37.3094 63.3479 37.7386C63.3366 37.7329 63.6416 37.5635 63.6924 36.8915ZM63.3423 62.8857C63.139 62.976 62.5347 63.1115 62.2467 63.1567C61.4166 63.281 51.8953 65.4947 42.7694 66.1554C41.8546 66.1949 40.0701 66.2401 38.6357 65.1671C38.0314 64.7154 37.7942 63.6932 37.7999 63.1567C37.8394 59.6103 38.5171 31.5887 38.5284 31.3007C38.5284 31.2951 38.7825 27.3646 39.7312 24.4676C41.2673 19.7635 43.1083 13.303 43.1421 9.24267C43.1647 6.28918 42.4137 4.02464 40.9171 2.51683C39.398 0.986432 36.4558 0.235352 34.1179 0.235352C31.7799 0.235352 28.8377 0.986432 27.3243 2.51118C25.8221 4.02464 25.0767 6.28918 25.0993 9.23703C25.1331 13.2974 26.9685 19.7578 28.5102 24.4619C29.4589 27.359 29.7074 31.2894 29.713 31.2951C29.7187 31.5831 30.402 59.6046 30.4415 63.1511C30.4472 63.6819 30.21 64.7041 29.6057 65.1615C28.177 66.2401 26.3868 66.1949 25.472 66.1497C16.3404 65.489 6.83614 63.5633 5.9947 63.3261C5.71234 63.2471 5.10244 63.1511 4.89914 63.0551C4.89914 63.0551 4.74102 63.0381 4.7749 63.7836C4.79184 64.2297 4.83137 64.4895 4.94997 64.6363C5.11938 64.8509 5.41304 64.8848 5.85352 65.0429C6.83049 65.3874 10.6141 65.9295 15.5046 66.7992C18.588 67.347 23.23 67.9512 24.879 67.9794C27.0588 68.019 29.233 68.1658 31.0627 66.4208C31.8646 65.6584 32.1696 64.7153 32.1583 63.7214C32.1188 60.1637 31.4411 31.5492 31.4298 31.2273C31.4185 31.0579 31.1644 27.0427 30.1479 23.9311C27.9963 17.3521 26.8443 12.2639 26.8217 9.22573C26.8047 6.7466 27.3807 4.89431 28.5497 3.71969C29.6735 2.5846 31.5992 2.00858 34.1235 1.9634C36.6478 2.00858 38.5679 2.5846 39.6973 3.71969C40.8663 4.89431 41.4423 6.7466 41.4254 9.22573C41.4028 12.2639 40.2508 17.3521 38.0992 23.9311C37.0827 27.0427 36.8285 31.0579 36.8173 31.2273C36.8116 31.5492 36.1283 60.1637 36.0888 63.7214C36.0775 64.721 36.3824 65.6641 37.1843 66.4208C39.0197 68.1658 41.1882 68.019 43.368 67.9794C45.017 67.9512 49.659 67.347 52.7424 66.7992C57.6329 65.9352 61.4109 65.201 62.3935 64.8848C62.9018 64.721 63.1277 64.6928 63.2971 64.4782C63.41 64.3313 63.4496 64.0716 63.4722 63.6254C63.5004 62.8857 63.3423 62.8857 63.3423 62.8857Z" fill="white"/>
</svg>
