<svg width="72" height="68" viewBox="0 0 72 68" fill="none" xmlns="http://www.w3.org/2000/svg">
<path d="M54.5178 10.4004L56.6185 15.0423L61.2943 17.1769L56.6185 19.3114L54.5178 23.9533L52.3493 19.3114L47.7413 17.1769L52.3493 15.0423L54.5178 10.4004ZM64.6825 40.8945C68.4096 40.8945 71.459 37.8451 71.459 34.118C71.459 30.391 64.6825 20.5651 64.6825 20.5651C64.6825 20.5651 57.906 30.391 57.906 34.118C57.906 37.8451 60.9555 40.8945 64.6825 40.8945Z" fill="#55E6EE"/>
<path d="M34.1885 14.2288V7.01182H40.9649C42.8962 7.01182 44.692 7.58782 46.2167 8.53653L51.1296 3.62359C48.2496 1.55676 44.7936 0.235352 40.9649 0.235352H22.3296V7.01182H27.412V14.2626C24.4812 14.8689 21.7638 16.2422 19.5374 18.2423C17.3111 20.2425 15.6556 22.7978 14.74 25.6471H28.2252L47.7414 32.9318V30.8311C47.7422 26.9257 46.3936 23.1399 43.9239 20.1145C41.4542 17.089 38.015 15.0099 34.1885 14.2288Z" fill="#007F3E"/>
<path d="M64.6823 51.0589H40.9647L33.8833 48.5855L35.0014 45.4005L40.9647 47.6707H50.5195C52.7218 47.6707 54.5176 45.8749 54.5176 43.6725C54.5176 42.0123 53.4672 40.5215 51.9087 39.9116L27.3101 30.7295H20.6353V61.2236L44.3529 68.0001L71.4588 57.8354C71.4588 56.0381 70.7448 54.3145 69.474 53.0437C68.2032 51.7729 66.4795 51.0589 64.6823 51.0589Z" fill="#FFB74D"/>
<path d="M0.305908 68.0001H13.8588V30.7295H0.305908V68.0001Z" fill="#DD962D"/>
</svg>
