<svg width="72" height="68" viewBox="0 0 72 68" fill="none" xmlns="http://www.w3.org/2000/svg">
<path d="M16.7566 45.1765H52.2524V64.5379H16.7566V45.1765Z" fill="#BF360C"/>
<path d="M11.9162 45.1761C15.4805 45.1761 18.37 42.2867 18.37 38.7223C18.37 35.158 15.4805 32.2686 11.9162 32.2686C8.35186 32.2686 5.4624 35.158 5.4624 38.7223C5.4624 42.2867 8.35186 45.1761 11.9162 45.1761Z" fill="#FFA726"/>
<path d="M57.0927 45.1761C60.657 45.1761 63.5465 42.2867 63.5465 38.7223C63.5465 35.158 60.657 32.2686 57.0927 32.2686C53.5284 32.2686 50.6389 35.158 50.6389 38.7223C50.6389 42.2867 53.5284 45.1761 57.0927 45.1761Z" fill="#FFA726"/>
<path d="M58.706 27.4289C58.706 6.93807 10.3026 14.0372 10.3026 27.4289V43.5633C10.3026 56.9549 21.1127 67.765 34.5043 67.765C47.8959 67.765 58.706 56.9549 58.706 43.5633V27.4289Z" fill="#FFB74D"/>
<path d="M44.185 41.9492C45.9672 41.9492 47.4119 40.5044 47.4119 38.7223C47.4119 36.9401 45.9672 35.4954 44.185 35.4954C42.4029 35.4954 40.9581 36.9401 40.9581 38.7223C40.9581 40.5044 42.4029 41.9492 44.185 41.9492Z" fill="#784719"/>
<path d="M24.8236 41.9492C26.6057 41.9492 28.0505 40.5044 28.0505 38.7223C28.0505 36.9401 26.6057 35.4954 24.8236 35.4954C23.0414 35.4954 21.5967 36.9401 21.5967 38.7223C21.5967 40.5044 23.0414 41.9492 24.8236 41.9492Z" fill="#784719"/>
<path d="M28.8098 1.32837C16.1833 1.32837 2.9132 8.13458 0.887521 44.2192C0.53926 50.4229 3.78803 56.238 9.02152 59.5874L16.7564 64.5377V45.9621C16.7564 39.481 20.1989 33.4876 25.7971 30.2219L35.24 24.7136C40.1664 21.8399 46.4615 23.0828 49.926 27.6133V27.6133C51.4348 29.5863 52.2523 32.0011 52.2523 34.4849V64.5377L63.4978 54.1723C66.1293 51.7467 68.5325 48.5751 68.1098 45.0213C67.6922 41.5099 65.2548 40.7152 65.2548 33.2177C66.3937 16.1341 59.0777 2.46727 42.4767 2.46727L35.5863 1.32837H28.8098Z" fill="#FF5722"/>
<path d="M68.3866 35.4958C67.4185 35.4958 66.7731 36.1412 66.7731 37.1093V25.8152C66.7731 11.6168 55.1563 0 40.958 0H26.4369C25.4689 0 24.8235 0.645379 24.8235 1.61345C24.8235 2.58152 25.4689 3.22689 26.4369 3.22689H40.958C53.3815 3.22689 63.5462 13.3916 63.5462 25.8152V41.9496C63.5462 42.9177 64.1916 43.5631 65.1597 43.5631C66.1277 43.5631 66.7731 42.9177 66.7731 41.9496V45.1765C66.7731 51.469 61.7714 56.4707 55.479 56.4707H34.5042C33.5361 56.4707 32.8907 57.116 32.8907 58.0841C32.8907 59.0522 33.5361 59.6976 34.5042 59.6976H55.479C63.5462 59.6976 70 53.2438 70 45.1765V37.1093C70 36.1412 69.3546 35.4958 68.3866 35.4958Z" fill="#757575"/>
<path d="M68.3867 32.2686H66.7733C64.9985 32.2686 63.5464 33.7207 63.5464 35.4954V41.9492C63.5464 43.724 64.9985 45.1761 66.7733 45.1761H68.3867C70.1615 45.1761 71.6136 43.724 71.6136 41.9492V35.4954C71.6136 33.7207 70.1615 32.2686 68.3867 32.2686Z" fill="#37474F"/>
<path d="M34.5044 61.3107C36.2865 61.3107 37.7313 59.866 37.7313 58.0838C37.7313 56.3017 36.2865 54.8569 34.5044 54.8569C32.7222 54.8569 31.2775 56.3017 31.2775 58.0838C31.2775 59.866 32.7222 61.3107 34.5044 61.3107Z" fill="#37474F"/>
</svg>
